<svg clip-rule="evenodd" fill-rule="evenodd" height="512" stroke-linejoin="round" stroke-miterlimit="2" viewBox="0 0 64 64" width="512" xmlns="http://www.w3.org/2000/svg" id="fi_5460486"><path d="m42.829 54.23c.304 0 .591-.138.781-.376.19-.237.261-.548.194-.845-.124-.547-.189-1.117-.189-1.702 0-4.245 3.447-7.692 7.693-7.692.584 0 1.154.065 1.701.189.297.067.608-.004.845-.194.238-.19.376-.477.376-.781v-31.056c0-4.845-3.928-8.773-8.773-8.773h-33.684c-4.845 0-8.773 3.928-8.773 8.773v33.684c0 4.845 3.928 8.773 8.773 8.773z" fill="#edf4fe"></path><path d="m42.829 54.23c.304 0 .591-.138.781-.376.19-.237.261-.548.194-.845-.124-.547-.189-1.117-.189-1.702 0-4.245 3.447-7.692 7.693-7.692.196 0 .39.007.583.022.388.029.758-.17.948-.51s.165-.76-.064-1.075l-6.244-8.6c-1.65-2.273-4.29-3.618-7.099-3.618-2.81 0-5.449 1.345-7.1 3.618 0 0-9.509 13.098-9.509 13.098-.254.351-.254.825 0 1.175l4.423 6.093c.188.259.489.412.809.412z" fill="#00912c"></path><path d="m24.868 43.734-2.045 2.816c-.254.351-.254.825 0 1.175l4.423 6.093c.188.259.489.412.809.412h2.829c.326-.923.184-1.957-.401-2.763z" fill="#008127"></path><path d="m3.191 43.794c-.124.171-.191.376-.191.587v1.076c0 4.845 3.928 8.773 8.773 8.773h16.282c.376 0 .721-.211.891-.546.171-.335.14-.737-.081-1.042l-8.95-12.327c-1.651-2.273-4.29-3.618-7.099-3.618-2.81 0-5.449 1.345-7.1 3.618 0 0-2.525 3.479-2.525 3.479z" fill="#00bf4b"></path><path d="m48.548 28.615v-2c0-.276-.224-.5-.5-.5s-.5.224-.5.5v2c0 .276.224.5.5.5s.5-.224.5-.5zm0-4v-2c0-.276-.224-.5-.5-.5s-.5.224-.5.5v2c0 .276.224.5.5.5s.5-.224.5-.5zm0-4v-2c0-.276-.224-.5-.5-.5s-.5.224-.5.5v2c0 .276.224.5.5.5s.5-.224.5-.5zm0-4v-1.881c0-.043-.001-.086-.001-.13-.006-.275-.235-.495-.511-.489s-.495.235-.489.511c.001.036.001.072.001.108v1.881c0 .276.224.5.5.5s.5-.224.5-.5zm-.434-4.136c-.274-.681-.668-1.301-1.156-1.834-.187-.203-.503-.217-.707-.03-.203.186-.217.503-.031.706.408.445.737.962.966 1.531.103.256.394.381.65.278s.381-.394.278-.651zm-2.883-3.145c-.637-.323-1.338-.537-2.08-.617-.274-.029-.521.169-.55.444-.03.274.169.521.443.55.619.067 1.204.246 1.734.515.247.125.548.026.673-.22.124-.246.026-.547-.22-.672zm-8.132-.652h-2c-.276 0-.5.224-.5.5s.224.5.5.5h2c.276 0 .5-.224.5-.5s-.224-.5-.5-.5zm4 0h-2c-.276 0-.5.224-.5.5s.224.5.5.5h2c.276 0 .5-.224.5-.5s-.224-.5-.5-.5zm-8 0h-2c-.276 0-.5.224-.5.5s.224.5.5.5h2c.276 0 .5-.224.5-.5s-.224-.5-.5-.5zm-4.772.321c-.128-.139-.212.01-.212.179 0 .276.224.5.5.5h.484c.276 0 .5-.224.5-.5s-.224-.5-.5-.5h-.479c-.251 0-.313.143-.293.321z" fill="#00bf4b"></path><circle cx="17.834" cy="17.834" fill="#f8bc38" r="5.627"></circle><circle cx="51.308" cy="51.307" fill="#55a1ff" r="9.693"></circle><g fill="#eef6ff"><path d="m50.308 47.807v7c0 .552.448 1.001 1 1 .551 0 1-.448 1-1v-7c0-.551-.449-.999-1-1-.552 0-1 .449-1 1z"></path><path d="m47.808 52.307h6.999c.552.001 1-.448 1.001-.999 0-.552-.449-1-1-1.001h-7.001c-.551.001-1 .449-.999 1.001 0 .551.448 1 1 .999z"></path></g></svg>