<svg height="512" viewBox="0 0 64 64" width="512" xmlns="http://www.w3.org/2000/svg"><g id="Layer_44" data-name="Layer 44"><path d="m10.19 2.5a7.73 7.73 0 1 0 7.73 7.73 7.74 7.74 0 0 0 -7.73-7.73zm0 12.46a4.73 4.73 0 1 1 4.73-4.73 4.73 4.73 0 0 1 -4.73 4.77z"/><path d="m10.19 24.27a7.73 7.73 0 1 0 7.73 7.73 7.74 7.74 0 0 0 -7.73-7.73zm0 12.46a4.73 4.73 0 1 1 4.73-4.73 4.73 4.73 0 0 1 -4.73 4.73z"/><path d="m10.19 46a7.73 7.73 0 1 0 7.73 7.73 7.74 7.74 0 0 0 -7.73-7.73zm0 12.46a4.73 4.73 0 1 1 4.73-4.73 4.73 4.73 0 0 1 -4.73 4.77z"/><path d="m29.92 14.84h27a4.62 4.62 0 1 0 0-9.23h-27a4.62 4.62 0 0 0 0 9.23zm0-6.23h27a1.62 1.62 0 1 1 0 3.23h-27a1.62 1.62 0 0 1 0-3.23z"/><path d="m56.92 27.38h-27a4.62 4.62 0 0 0 0 9.24h27a4.62 4.62 0 0 0 0-9.24zm0 6.24h-27a1.62 1.62 0 0 1 0-3.24h27a1.62 1.62 0 0 1 0 3.24z"/><path d="m56.92 49.15h-27a4.62 4.62 0 0 0 0 9.23h27a4.62 4.62 0 1 0 0-9.23zm0 6.23h-27a1.62 1.62 0 0 1 0-3.23h27a1.62 1.62 0 1 1 0 3.23z"/></g></svg>