<svg id="Capa_1" enable-background="new 0 0 512 512" height="512" viewBox="0 0 512 512" width="512" xmlns="http://www.w3.org/2000/svg"><g><g><path d="m191.014 172.607c-4.074 0-8.148-1.554-11.256-4.662l-70.048-70.049c-6.216-6.216-6.216-16.295 0-22.511l70.048-70.049c2.985-2.985 7.034-4.662 11.256-4.662 4.221 0 8.27 1.677 11.255 4.662l70.048 70.049c6.216 6.216 6.216 16.295 0 22.511l-70.048 70.049c-3.108 3.108-7.182 4.662-11.255 4.662z" fill="#ff7d47"/><g fill="#9bbdfd"><path d="m347.036 121.949c-8.284 0-15-6.716-15-15v-21.944c0-8.284 6.716-15 15-15 11.029 0 20.002-8.973 20.002-20.002s-8.973-20.003-20.002-20.003-20.002 8.973-20.002 20.002c0 8.284-6.716 15-15 15s-15-6.716-15-15c0-27.571 22.431-50.002 50.002-50.002s50.002 22.431 50.002 50.002c0 22.348-14.736 41.318-35.002 47.705v9.242c0 8.284-6.716 15-15 15z"/><path d="m346.6 172.607c-11.192.103-18.598-12.236-13.23-22.06 5.821-11.103 22.359-10.29 27.08 1.321 4.156 9.656-3.336 20.877-13.85 20.739z"/></g></g><g><g><g><path d="m123.976 414.189c-19.377 0-35.14-15.764-35.14-35.14s15.764-35.14 35.14-35.14h26.837c2.757 0 5 2.243 5 5v60.28c0 2.757-2.243 5-5 5z" fill="#ffddce"/><path d="m361.187 414.189c-2.757 0-5-2.243-5-5v-60.28c0-2.757 2.243-5 5-5h26.837c19.376 0 35.14 15.764 35.14 35.14s-15.764 35.14-35.14 35.14z" fill="#ffcbbc"/></g><g><path d="m256 512c-66.271 0-120.188-53.916-120.188-120.188v-24.398c3.347-5.339 19.405-23.45 44.071-42.289 29.164-22.273 56.307-34.54 76.431-34.54 20.031 0 47.037 12.263 76.042 34.529 24.544 18.842 40.513 36.956 43.831 42.286v24.412c0 66.272-53.916 120.188-120.187 120.188zm120.66-143.753" fill="#ffece2"/><path d="m332.356 325.115c-29.005-22.267-56.011-34.529-76.042-34.529-.104 0-.21.005-.314.006v221.408c66.271 0 120.187-53.916 120.187-120.188v-24.412c-3.318-5.329-19.287-23.443-43.831-42.285z" fill="#ffddce"/></g><g><path d="m359.552 370.586c-24.699 0-44.793-20.094-44.793-44.793 0-12.441-10.122-22.563-22.563-22.563h-28.729c-1.442 0-2.814-.622-3.763-1.708-.949-1.085-1.384-2.526-1.193-3.956l8.94-66.835c.331-2.472 2.461-4.337 4.956-4.337h27.509c42.047 0 76.255 34.208 76.255 76.255v62.937c0 2.757-2.243 5-5 5z" fill="#403937"/><g><path d="m140.812 370.586c-2.757 0-5-2.243-5-5v-62.937c0-42.047 34.208-76.255 76.255-76.255h88.63c2.757 0 5 2.243 5 5v29.606c0 23.286-18.944 42.23-42.23 42.23h-43.68c-12.308 0-22.43 10.01-22.562 22.314-.267 24.835-20.361 45.041-44.794 45.041h-11.619z" fill="#6c5d58"/><path d="m300.698 226.394h-44.698v76.836h7.468c23.286 0 42.23-18.944 42.23-42.23v-29.606c0-2.757-2.243-5-5-5z" fill="#504541"/></g></g><g><path d="m256 462.491c-14.447 0-27.905-7.153-36-19.135-4.638-6.864-2.833-16.189 4.032-20.827s16.189-2.832 20.827 4.032c2.508 3.713 6.674 5.93 11.142 5.93 4.691 0 8.966-2.388 11.438-6.389 4.354-7.047 13.598-9.23 20.645-4.876s9.23 13.598 4.876 20.646c-7.979 12.911-21.795 20.619-36.96 20.619z" fill="#ffddce"/><path d="m288.083 421.226c-7.048-4.354-16.291-2.171-20.645 4.876-2.472 4.001-6.747 6.389-11.438 6.389v30c15.165 0 28.981-7.708 36.959-20.62 4.355-7.047 2.172-16.29-4.876-20.645z" fill="#ffcbbc"/></g></g><g><path d="m305.8 398.427c-11.188.09-18.607-12.246-13.22-22.07 5.824-11.095 22.363-10.286 27.07 1.33 4.182 9.649-3.348 20.881-13.85 20.74z" fill="#403937"/><path d="m207.4 398.427c-10.501.142-18.036-11.091-13.85-20.74 5.064-12.279 22.627-12.267 27.7 0 4.159 9.658-3.338 20.872-13.85 20.74z" fill="#6c5d58"/></g></g></g></svg>