<svg height="512" viewBox="0 0 47 59" width="512" xmlns="http://www.w3.org/2000/svg" id="fi_3646528"><g id="Page-1" fill="none" fill-rule="evenodd"><g id="066---Swipe" fill-rule="nonzero"><path id="Shape" d="m12.56 19.24c.9386207-1.2136215 1.4453887-2.7057715 1.44-4.24 0-3.8659932-3.1340068-7-7-7-3.86599325 0-7 3.1340068-7 7s3.13400675 7 7 7c.07347527.0016609.1469784-.0016802.22-.01z" fill="#e64c3c"></path><path id="Shape" d="m44.7 44.89c-.0783442.827634-.1150571 1.6586816-.11 2.49l-14.94 7.99c-1.11-1.33-3.14-3.32-5.73-3.74-1.5306012-.1895942-3.0425796-.5073772-4.52-.95-2.72-.8-4.15-3.44-5.1-5.2l-1.73-3.17c-.9469098-1.7397567-.7742031-3.8750392.44-5.44.0335319-.0490467.0702792-.095816.11-.14l1.25-1.52.02-.02-10.02-18.45c-.39323845-.7226362-.4724539-1.5750558-.21910868-2.3577791s.81701755-1.4270585 1.55910868-1.7822209c1.50225875-.6504244 3.25184109-.0308716 4.01 1.42l7.99 14.7c-.2161266-.4132232-.3260935-.8737094-.32-1.34.0015599-.7465651.2794114-1.4661292.78-2.02.2241027-.2522839.491681-.4622821.79-.62 1.4529059-.7859927 3.2678476-.2495567 4.06 1.2l.45.83c-.2216348-.4259288-.3349717-.8998827-.33-1.38-.0002309-.7420753.2740328-1.4580105.77-2.01.2279505-.2549785.4986854-.4681823.8-.63.6985907-.3791982 1.519389-.4647268 2.2811494-.2376997.7617605.2270271 1.4018226.7479353 1.7788506 1.4476997l.94 1.71c-.5898635-1.113657-.4178656-2.4776402.43-3.41.2294768-.246505.4960169-.4556885.79-.62.7029866-.3761413 1.5262523-.4588274 2.29-.23.7619904.2227214 1.4030473.7413292 1.78 1.44l7.16 13.18c1.91 3.51 2.87 5.27 2.54 8.86z" fill="#fdd7ad"></path><g fill="#f9c795"><path id="Shape" d="m32.48 28.67c-.1479313.0782549-.3126465.1194338-.48.12-.3659239-.0009389-.7026599-.1999193-.88-.52l-1.41-2.6c-.5898635-1.113657-.4178656-2.4776402.43-3.41l2.74 5.06c.2597488.4835179.0812266 1.0860303-.4 1.35z"></path><path id="Shape" d="m20.98 32.64c-.1479313.0782549-.3126465.1194338-.48.12-.3659239-.0009389-.7026599-.1999193-.88-.52l-1.89-3.48c-.01-.01-.01-.03-.02-.04-.2161266-.4132232-.3260935-.8737094-.32-1.34.0015599-.7465651.2794114-1.4661292.78-2.02l3.21 5.93c.2597488.4835179.0812266 1.0860303-.4 1.35z"></path><path id="Shape" d="m26.73 30.66c-.1479313.0782549-.3126465.1194338-.48.12-.3659239-.0009389-.7026599-.1999193-.88-.52l-1.89-3.48c0-.0055228-.0044772-.01-.01-.01-.2216348-.4259288-.3349717-.8998827-.33-1.38-.0002309-.7420753.2740328-1.4580105.77-2.01l3.22 5.93c.2597488.4835179.0812266 1.0860303-.4 1.35z"></path><path id="Shape" d="m16.62 41.43c-.145647.0840579-.3119312.125629-.48.12-.3652283-.0034538-.7007925-.2017418-.88-.52l-2.25-4.16c.0335319-.0490467.0702792-.095816.11-.14l1.25-1.52 2.65 4.87c.129198.2313999.1595916.5051324.0843012.7592374-.0752903.254105-.2498984.4670963-.4843012.5907626z"></path></g><rect id="Rectangle-path" fill="#67b9cc" height="4" rx="2" transform="matrix(.879 -.478 .478 .879 -20.804 24.521)" width="20" x="27.829" y="51.179"></rect><path id="Shape" d="m45.8 4.4c-.135-.179-3.4-4.4-11.8-4.4-10.784 0-15.277 5.107-17 7.389v-3.389c0-.55228475-.4477153-1-1-1s-1 .44771525-1 1v6c0 .5522847.4477153 1 1 1h6c.5522847 0 1-.4477153 1-1 0-.55228475-.4477153-1-1-1h-3.7c1.3-1.78 5.188-7 15.7-7 7.334 0 10.091 3.458 10.2 3.6.2143594.28581247.5649147.43555473.9196152.39282032.3547006-.04273441.6596589-.27145311.8-.6.1403412-.32854688.0947442-.70700785-.1196152-.99282032z" fill="#c03a2b"></path></g></g></svg>