<svg id="fi_2940637" height="512" viewBox="0 0 16.933333 16.933333" width="512" xmlns="http://www.w3.org/2000/svg" xmlns:svg="http://www.w3.org/2000/svg"><g id="layer2"><g fill="#356287"><path id="path3339" d="m2.4967894 11.240023c-.7584928.247777-1.3565235.658971-1.68844096 1.32298-.4214647.843148-.20700384 1.625327.0977108 2.167183.30471456.541857.71133396.879381.71133396.879381.272287.226684.6123203-.181739.3400332-.408424 0 0-.3358623-.282111-.5882185-.730862-.2523561-.44875-.40716784-1.0322-.08794-1.670823.2560439-.512222.7304534-.84513 1.3796751-1.057211.658014-.214953 1.4963008-.301073 2.4193171-.312669.3827769.02775.3762034-.563876-.00586-.527628-.9508676.01195-1.8345158.09533-2.5776095.338073z" font-variant-ligatures="normal" font-variant-position="normal" font-variant-caps="normal" font-variant-numeric="normal" font-variant-alternates="normal" font-feature-settings="normal" text-indent="0" text-align="start" text-decoration-line="none" text-decoration-style="solid" text-decoration-color="#000000" text-transform="none" text-orientation="mixed" white-space="normal" shape-padding="0" isolation="auto" mix-blend-mode="normal" solid-color="#000000" solid-opacity="1" vector-effect="none"></path><path id="path3342" d="m12.70365 8.0859778c-.29755.021968-.337103.4427871-.04886.5198116.635373.1918984 1.141232.4248914 1.397262.6683292.128014.121719.193564.2343179.215884.3555466s.0048.2660011-.09082.4573918c-.239658.47944-.769376.765226-1.559462.916511-.790087.151284-1.809243.154492-2.9117798.105526-.353162-.01575-.376612.513838-.02345.529581 1.1173728.04963 2.1653208.05121 3.0348938-.115296.869573-.166504 1.592738-.51582 1.934673-1.199867.133735-.267511.182959-.5368621.136809-.7875333-.046155-.2506712-.184581-.4692921-.371305-.6468334-.373448-.3550824-.938701-.5892018-1.608318-.7914424-.034018-.0109938-.069917-.014982-.105527-.0117251z" font-variant-ligatures="normal" font-variant-position="normal" font-variant-caps="normal" font-variant-numeric="normal" font-variant-alternates="normal" font-feature-settings="normal" text-indent="0" text-align="start" text-decoration-line="none" text-decoration-style="solid" text-decoration-color="#000000" text-transform="none" text-orientation="mixed" white-space="normal" shape-padding="0" isolation="auto" mix-blend-mode="normal" solid-color="#000000" solid-opacity="1" vector-effect="none"></path><path id="path3345" d="m.79662315 1.0587498s2.98686945.00507 5.28028655.4318735c1.3222477.2460708 2.1114329.57652 2.3860954.9301892.1373311.1768347.139704.3505421.0195419.5725745-.142603.2634986-.4764694.6086655-1.1451693 1.0454859-.7836611.5119174-1.2717662.9418213-1.5321038 1.3581543-.133191.2129998-.2045248.4209838-.2032383.6312.0012908.2102162.079023.4027914.2049646.5625756.2518838.3195683.6653593.5283094 1.1668936.7076408.5015345.1793315 1.101403.3242079 1.7451133.4592321.3530156.0850792.4666919-.4528442.109436-.5178575-.6334689-.132876-1.2166993-.2752042-1.6767157-.4396903-.4600164-.164486-.7906494-.361392-.9262976-.5334908-.0623236-.0790709-.0932754-.1562513-.0938023-.2423182-.0005267-.0860669.0288919-.1983321.1211614-.3458899.1845389-.2951154.621798-.7047126 1.3738125-1.1959575.6812935-.445047 1.1031169-.8407754 1.3210487-1.2389495.2409059-.440149.1746243-.8366924-.0664433-1.1471032-.4821351-.6208217-1.6909347-.9385481-2.7065864-1.12756133-2.373305-.44167307-5.37799725-.4396903-5.37799725-.4396903-.35817356.002136-.35500323.52958263 0 .52958263z" font-variant-ligatures="normal" font-variant-position="normal" font-variant-caps="normal" font-variant-numeric="normal" font-variant-alternates="normal" font-feature-settings="normal" text-indent="0" text-align="start" text-decoration-line="none" text-decoration-style="solid" text-decoration-color="#000000" text-transform="none" text-orientation="mixed" white-space="normal" shape-padding="0" isolation="auto" mix-blend-mode="normal" solid-color="#000000" solid-opacity="1" vector-effect="none"></path></g><path id="path3197" d="m3.7624007 12.181839-.7018957.701899c-.032888.03286-.055876.0743-.066338.119599l-.7147092 3.09697c-.041155.178498.118807.338454.2973112.297301l3.0965897-.714686c.045298-.01046.086743-.03345.1196024-.06633l.6403933-.640372z" fill="#fca"></path><path id="path3231" d="m5.6733586 15.682927c.045298-.01046.086743-.03345.1196024-.06633l.6406235-.640603-1.3354799-1.397423-2.7523088 2.752464c.057158.05741.141721.08717.2309731.06659z" fill="#ffb380"></path><path id="path3217" d="m11.442845 4.5011991-8.1441034 8.1443109c-.0018.0017-.00357.0035-.00532.0053-.1333601.141664-.059045.37471.1317079.413026l.9916835.198523v.749548c.0000139.136912.1110038.247898.2479209.247912h.7500572l.1980461.991651c.038778.194158.2782794.266781.4183665.126861l8.1445833-8.1443083c.09678-.096817.09678-.2537467 0-.3505639l-2.382364-2.382284c-.04732-.047333-.111757-.073528-.178679-.07262-.06457.000914-.126245.026972-.171899.072644z" fill="#5299d3" font-variant-ligatures="normal" font-variant-position="normal" font-variant-caps="normal" font-variant-numeric="normal" font-variant-alternates="normal" font-feature-settings="normal" text-indent="0" text-align="start" text-decoration-line="none" text-decoration-style="solid" text-decoration-color="#000000" text-transform="none" text-orientation="mixed" white-space="normal" shape-padding="0" isolation="auto" mix-blend-mode="normal" solid-color="#000000" solid-opacity="1" vector-effect="none"></path><path id="path3219" d="m2.6551413 14.472399-.3756836 1.627908c-.041155.178498.1188068.338455.2973112.297301.538166-.124233 1.0763528-.248376 1.6145156-.372623z" fill="#356287" font-variant-ligatures="normal" font-variant-position="normal" font-variant-caps="normal" font-variant-numeric="normal" font-variant-alternates="normal" font-feature-settings="normal" text-indent="0" text-align="start" text-decoration-line="none" text-decoration-style="solid" text-decoration-color="#000000" text-transform="none" text-orientation="mixed" white-space="normal" shape-padding="0" isolation="auto" mix-blend-mode="normal" solid-color="#000000" solid-opacity="1" vector-effect="none"></path><path id="path3238" d="m12.984604 5.6923372-8.4951622 8.4948768a.24794562.24793725 0 0 0 .175288.07263h.7500573l.198046.991651a.24794562.24793725 0 0 0 .4183665.126862l8.1445874-8.144315a.24794562.24793725 0 0 0 0-.3505639z" fill="#3587cb"></path><path id="path3221" d="m14.193702 2.2728907c-.322485 0-.644993.122508-.889998.3675109l-1.860859 1.8607962 2.73294 2.7328479 1.86086-1.8607965c.49001-.4900057.49001-1.2899289 0-1.779934l-.952946-.9529136c-.245007-.2450025-.567515-.3675108-.889997-.3675109z" fill="#eee"></path><path id="path3233" d="m15.560171 3.1168584-2.750856 2.7507633 1.36647 1.366424 1.86086-1.8607965c.49001-.4900057.49001-1.2899289 0-1.779934z" fill="#d0d0d0"></path><path id="path3322" d="m3.4252936 15.251325-1.0796055 1.079587v.000529c.057159.05716.1418702.08677.2311224.06618.5380642-.124329 1.0761444-.248588 1.6142379-.37279z" fill="#2c5170"></path><path id="path3223" d="m12.182095 3.7615912c-.492941.4927243-.985589.9857424-1.478253 1.4787435l2.732622 2.7330905c.492923-.4929146.985847-.9858292 1.47877-1.4787438z" fill="#ffca28"></path><path id="path3241" d="m13.548665 5.1281363-1.47877 1.4787435 1.366569 1.3665454c.492923-.4929146.985847-.9858292 1.47877-1.4787438z" fill="#ecb200"></path></g></svg>