<svg id="Capa_1" enable-background="new 0 0 512 512" height="512" viewBox="0 0 512 512" width="512" xmlns="http://www.w3.org/2000/svg"><g><path d="m232.47 80.96 72.993 165.69-72.993 189.1h-149.99v-354.79z" fill="#e6eaff"/><path d="m232.47 80.96h204.79v354.79h-204.79z" fill="#ccd5ff"/><g><path d="m437.261 435.75v-233.484c-4.927-.753-9.997.984-13.421 4.804l-99.78 111.18c-2.47 2.75-3.84 6.32-3.84 10.02v57.874z" fill="#73f"/></g><g><path d="m232.47 201.04 43.189 116.23-43.189 116.23h-149.2v-77.56l137.95-149.91c2.85-3.34 7.05-5 11.25-4.99z" fill="#99f"/></g><path d="m430.37 414.25v19.25h-197.9v-232.46c4.23.01 8.46 1.72 11.29 5.13z" fill="#8066ff"/><path d="m85 0h-70c-8.284 0-15 6.716-15 15v70c0 8.284 6.716 15 15 15s15-6.716 15-15v-55h55c8.284 0 15-6.716 15-15s-6.716-15-15-15z" fill="#99f"/><path d="m497 412c-8.284 0-15 6.716-15 15v55h-55c-8.284 0-15 6.716-15 15s6.716 15 15 15h70c8.284 0 15-6.716 15-15v-70c0-8.284-6.716-15-15-15z" fill="#8066ff"/><path d="m232.47 91 17.537-16.391-17.537-13.609h-156.47c-8.28 0-15 6.72-15 15v345h-46c-8.28 0-15 6.72-15 15s6.72 15 15 15h46v46c0 8.28 6.72 15 15 15s15-6.72 15-15v-46h141.47l17.537-16.915-17.537-13.085h-141.47v-330z" fill="#624d8c"/><path d="m512 76c0 8.28-6.72 15-15 15h-46v345c0 8.28-6.72 15-15 15h-203.53v-30h188.53v-330h-188.53v-30h188.53v-46c0-8.28 6.72-15 15-15s15 6.72 15 15v46h46c8.28 0 15 6.72 15 15z" fill="#493373"/><g><circle cx="332" cy="173" fill="#f93" r="48"/></g></g></svg>