<svg id="Layer_1" enable-background="new 0 0 512 512" viewBox="0 0 512 512" xmlns="http://www.w3.org/2000/svg"><g id="XMLID_2488_"><g id="XMLID_2470_"><path id="XMLID_2473_" d="m308.6 5.8h-265.4v500h378.4v-388.6z" fill="#ffa63b"/><g fill="#040403"><path id="XMLID_2472_" d="m308.6 5.8 113 111.4h-113z"/><path id="XMLID_2471_" d="m43.2 233.4h427.6v202.9h-427.6z"/></g></g><g id="XMLID_2512_" fill="#fff"><path id="XMLID_2433_" d="m168.4 309.4v60.4c0 7.4-2 13.1-6 17.2s-9.5 6.1-16.6 6.1c-1.6 0-3.1-.1-4.4-.2s-2.8-.4-4.3-.7l.8-14c1.1.2 2 .4 2.7.5.8.1 1.7.2 2.8.2 2.1 0 3.6-.8 4.7-2.3s1.6-3.7 1.6-6.7v-60.4h18.7zm-.3-13.9h-18.7v-12.5h18.7z"/><path id="XMLID_2436_" d="m217.8 352.2c0-1.5-.8-2.8-2.5-3.9-1.7-1.2-4.7-2.2-9.1-3.1-6.9-1.4-12.2-3.5-15.7-6.3s-5.3-6.8-5.3-11.8c0-5.3 2.2-9.7 6.6-13.4s10.4-5.5 17.9-5.5c7.9 0 14.2 1.8 18.9 5.3s6.9 8.1 6.7 13.7l-.1.3h-18.1c0-2.3-.6-4.1-1.8-5.3s-3.1-1.8-5.8-1.8c-1.9 0-3.6.5-4.9 1.6s-2 2.4-2 4.1c0 1.6.8 2.9 2.3 4s4.6 2.1 9.2 3c7.3 1.4 12.7 3.6 16.2 6.4s5.2 6.9 5.2 12.1c0 5.4-2.4 9.8-7.1 13.2-4.8 3.5-11 5.2-18.9 5.2-8.1 0-14.5-2.1-19.3-6.2-4.7-4.1-7-8.7-6.7-13.8l.1-.3h16.9c.1 2.8.9 4.9 2.6 6.1 1.6 1.2 4 1.9 7 1.9 2.5 0 4.4-.5 5.7-1.5 1.4-.8 2-2.2 2-4z"/><path id="XMLID_2438_" d="m249.9 338.6c0-9 2.5-16.3 7.6-21.9s12.1-8.5 21.2-8.5 16.2 2.8 21.3 8.5c5.1 5.6 7.6 12.9 7.6 21.9v1.2c0 9-2.5 16.3-7.6 21.9s-12.1 8.4-21.2 8.4-16.2-2.8-21.3-8.4-7.6-12.9-7.6-21.9zm18.6 1.2c0 5 .8 8.9 2.3 11.8 1.6 2.8 4.2 4.3 8 4.3 3.6 0 6.2-1.4 7.8-4.3s2.4-6.8 2.4-11.7v-1.2c0-4.8-.8-8.7-2.4-11.7-1.6-2.9-4.2-4.4-7.9-4.4s-6.3 1.5-7.9 4.4-2.3 6.8-2.3 11.6z"/><path id="XMLID_2441_" d="m340.8 309.4.7 8.4c1.9-3 4.4-5.3 7.2-7 2.9-1.7 6.1-2.5 9.6-2.5 5.8 0 10.4 2 13.7 5.9 3.3 4 4.9 10.3 4.9 18.9v35.9h-18.6v-35.9c0-3.8-.6-6.5-1.8-8.1s-3-2.4-5.3-2.4c-2 0-3.8.3-5.3 1-1.6.7-2.9 1.7-4 3v42.4h-18.6v-59.6z"/></g></g></svg>