<svg id="Capa_1" enable-background="new 0 0 512 512" height="512" viewBox="0 0 512 512" width="512" xmlns="http://www.w3.org/2000/svg"><g><g><g><g><g><path d="m409.252 16.988v312.742l-42.196 42.196h-227.742l-42.196-42.196v-312.742c0-9.385 7.613-16.988 16.998-16.988h278.149c9.374 0 16.987 7.603 16.987 16.988z" fill="#eef4f5"/><path d="m409.252 16.988v312.742l-42.196 42.196h-33.357l42.196-42.196v-312.742c0-9.385-7.613-16.988-16.988-16.988h33.357c9.375 0 16.988 7.603 16.988 16.988z" fill="#cbe5e7"/><path d="m409.252 76.841v143.319c-23.632 5.182-49.315-1.411-67.683-19.779-28.649-28.649-28.649-75.111 0-103.76 18.368-18.368 44.051-24.962 67.683-19.78z" fill="#a9d3d8"/></g><g><path d="m370.856 42.691v257.813c0 3.132-2.534 5.666-5.666 5.666h-224.013c-3.121 0-5.656-2.534-5.656-5.666v-257.813c0-3.121 2.534-5.666 5.656-5.666h224.013c3.132 0 5.666 2.544 5.666 5.666z" fill="#fcb44d"/><path d="m370.857 42.691v257.813c0 3.132-2.534 5.666-5.666 5.666h-33.007c3.132 0 5.666-2.534 5.666-5.666v-257.813c0-3.121-2.534-5.666-5.666-5.666h33.007c3.132 0 5.666 2.544 5.666 5.666z" fill="#fb9927"/><path d="m370.856 270.783v29.721c0 3.129-2.537 5.666-5.666 5.666h-224.013c-3.124 0-5.656-2.532-5.656-5.656v-121.922c19.679-16.591 43.063-36.299 54.218-45.699 3.798-3.201 9.337-3.234 13.176-.08z" fill="#1ec186"/><path d="m370.857 270.783v29.721c0 3.132-2.534 5.666-5.666 5.666h-3.018l-191.428-157.268c7.675-6.47 14.381-12.125 18.996-16.009 3.801-3.204 9.334-3.235 13.176-.082z" fill="#1eb07c"/><path d="m370.857 187.709v112.795c0 3.132-2.534 5.666-5.666 5.666h-224.013c-3.121 0-5.656-2.534-5.656-5.656v-3.554l178.19-146.399c3.832-3.152 9.375-3.111 13.176.082z" fill="#23f1a8"/><g fill="#26d192"><path d="m316.155 261.099c0 9.694-7.86 17.554-17.554 17.554h-67.168v27.516h-35.109v-45.07c0-9.694 7.86-17.554 17.554-17.554h84.722c9.694 0 17.555 7.86 17.555 17.554z"/><path d="m370.857 187.709v112.795c0 3.132-2.534 5.666-5.666 5.666h-33.007c3.132 0 5.666-2.534 5.666-5.666v-140.62z"/><path d="m370.857 187.709v30.617c-10.714-3.461-20.779-9.436-29.288-17.946-14.392-14.392-21.552-33.285-21.49-52.148 2.421-.051 4.842.762 6.81 2.411z"/></g></g></g><g><g><g><path d="m450.991 222.724c-9.44.445-16.702 8.578-16.702 18.028v93.823l-12.086-12.312c-1.88-1.915-4.123-3.473-6.648-4.386-6.706-2.425-13.89-.618-18.604 4.184l-12.283 12.513v-93.822c0-9.451-7.262-17.583-16.702-18.028-10.08-.476-18.402 7.557-18.402 17.532v136.875c0 6.285 3.15 12.269 8.563 15.463 2.824 1.667 5.921 2.469 8.986 2.469 4.623 0 9.162-1.827 12.53-5.257l29.836-30.394 29.839 30.396c4.993 5.084 12.568 6.642 19.167 3.951 6.599-2.698 10.91-9.119 10.91-16.248v-137.255c-.002-9.975-8.325-18.008-18.404-17.532z" fill="#64b9fc"/><path d="m469.397 240.262v137.254c0 7.123-4.316 13.543-10.916 16.243-6.599 2.687-14.174 1.13-19.168-3.948l-.713-.737c2.759-3.139 4.364-7.218 4.364-11.558v-137.254c0-4.435-1.641-8.478-4.34-11.558 3.222-3.686 7.955-6.005 13.222-6.005 9.691 0 17.551 7.86 17.551 17.563z" fill="#31a7fb"/><path d="m298.602 257.808c9.693 0 17.552-7.859 17.552-17.552s-7.859-17.552-17.552-17.552h-84.724c-9.693 0-17.552 7.859-17.552 17.552v68.304c-.002.11-.033.213-.033.323 0 .111.03.213.033.323v68.304c0 9.693 7.859 17.552 17.552 17.552h84.724c9.693 0 17.552-7.859 17.552-17.552s-7.859-17.552-17.552-17.552h-67.172v-33.523h48.533c9.693 0 17.552-7.859 17.552-17.552s-7.859-17.552-17.552-17.552h-48.533v-33.523z" fill="#64b9fc"/><g fill="#31a7fb"><path d="m316.15 240.262c0 9.691-7.86 17.551-17.551 17.551h-26.433c9.703 0 17.563-7.86 17.563-17.551 0-9.703-7.86-17.563-17.563-17.563h26.433c9.691 0 17.551 7.86 17.551 17.563z"/><path d="m297.517 308.883c0 9.691-7.86 17.551-17.551 17.551h-26.433c9.691 0 17.551-7.86 17.551-17.551s-7.86-17.551-17.551-17.551h26.433c9.691 0 17.551 7.86 17.551 17.551z"/><path d="m316.15 377.516c0 9.691-7.86 17.551-17.551 17.551h-26.433c9.703 0 17.563-7.86 17.563-17.551 0-9.703-7.86-17.563-17.563-17.563h26.433c9.691 0 17.551 7.86 17.551 17.563z"/></g><path d="m144.881 222.704c-9.693 0-17.552 7.859-17.552 17.552v75.403l-52.235-84.623c-4.122-6.678-12.179-9.808-19.729-7.665-7.549 2.143-12.76 9.037-12.76 16.886v137.253c0 9.693 7.859 17.552 17.552 17.552s17.552-7.859 17.552-17.552v-75.403l52.235 84.623c3.255 5.273 8.963 8.334 14.937 8.334 1.592 0 3.204-.218 4.793-.668 7.549-2.143 12.76-9.037 12.76-16.886v-137.254c-.001-9.693-7.86-17.552-17.553-17.552z" fill="#64b9fc"/><path d="m162.439 240.262v137.254c0 7.848-5.22 14.732-12.771 16.885-1.581.452-3.199.666-4.792.666-5.03 0-9.869-2.176-13.211-6.005 2.735-3.127 4.34-7.182 4.34-11.546v-137.254c0-4.435-1.641-8.478-4.34-11.558 3.222-3.686 7.943-6.005 13.211-6.005 9.703 0 17.563 7.86 17.563 17.563z" fill="#31a7fb"/></g></g></g></g><g><g><g><path d="m471.031 416.971v73.118c0 12.107-9.805 21.911-21.9 21.911h-386.251c-12.096 0-21.911-9.805-21.911-21.911v-73.118c0-12.096 9.816-21.901 21.911-21.901h386.251c12.095.001 21.9 9.805 21.9 21.901z" fill="#fcb44d"/><path d="m471.031 416.971v73.118c0 12.107-9.805 21.911-21.9 21.911h-38.307c12.096 0 21.911-9.805 21.911-21.911v-73.118c0-12.096-9.816-21.901-21.911-21.901h38.307c12.095.001 21.9 9.805 21.9 21.901z" fill="#fb9927"/></g></g><g fill="#3f5959"><path d="m349.983 423.867c-11.485 0-20.829 9.344-20.829 20.829v16.247c0 11.485 9.344 20.829 20.829 20.829s20.829-9.344 20.829-20.829v-16.247c0-11.485-9.344-20.829-20.829-20.829zm5.376 37.077c0 2.965-2.411 5.377-5.376 5.377s-5.376-2.412-5.376-5.377v-16.247c0-2.964 2.411-5.376 5.376-5.376s5.376 2.412 5.376 5.376z"/><path d="m307.151 423.867h-26.205c-4.268 0-7.726 3.459-7.726 7.726s3.459 7.726 7.726 7.726h5.376v34.727c0 4.267 3.459 7.726 7.726 7.726s7.726-3.459 7.726-7.726v-34.726h5.376c4.268 0 7.726-3.459 7.726-7.726.001-4.268-3.458-7.727-7.725-7.727z"/><path d="m398.86 423.867c-4.268 0-7.726 3.459-7.726 7.726v19.6c0 4.267 3.459 7.726 7.726 7.726 4.268 0 7.726-3.459 7.726-7.726v-19.6c0-4.267-3.458-7.726-7.726-7.726z"/><path d="m398.86 466.035c-4.268 0-7.726 3.459-7.726 7.726v.285c0 4.267 3.459 7.726 7.726 7.726 4.268 0 7.726-3.459 7.726-7.726v-.285c0-4.267-3.458-7.726-7.726-7.726z"/><path d="m238.114 423.867c-11.485 0-20.829 9.344-20.829 20.829v16.247c0 11.485 9.344 20.829 20.829 20.829s20.829-9.344 20.829-20.829v-16.247c0-11.485-9.345-20.829-20.829-20.829zm5.376 37.077c0 2.965-2.411 5.377-5.376 5.377s-5.376-2.412-5.376-5.377v-16.247c0-2.964 2.411-5.376 5.376-5.376s5.376 2.412 5.376 5.376z"/><path d="m194.238 423.867c-4.268 0-7.726 3.459-7.726 7.726v13.5h-10.753v-13.5c0-4.267-3.459-7.726-7.726-7.726s-7.726 3.459-7.726 7.726v42.453c0 4.267 3.459 7.726 7.726 7.726s7.726-3.459 7.726-7.726v-13.501h10.753v13.501c0 4.267 3.459 7.726 7.726 7.726s7.726-3.459 7.726-7.726v-42.453c.001-4.267-3.458-7.726-7.726-7.726z"/><path d="m127.105 423.867h-13.964c-4.268 0-7.726 3.459-7.726 7.726v42.453c0 4.267 3.459 7.726 7.726 7.726 4.268 0 7.726-3.459 7.726-7.726v-10.243h6.237c11.011 0 19.969-8.958 19.969-19.968s-8.956-19.968-19.968-19.968zm0 24.484h-6.237v-9.031h6.237c2.49 0 4.516 2.026 4.516 4.516s-2.026 4.515-4.516 4.515z"/></g></g></g><g><g><circle cx="393.448" cy="125.929" fill="#31a7fb" r="68.942"/><path d="m442.197 174.675c-26.927 26.927-70.575 26.921-97.496 0-15.587-15.587-22.15-36.779-19.691-57.091 1.728 12.383 7.36 24.319 16.881 33.841 23.283 23.283 61.04 23.29 84.33 0 23.283-23.283 23.283-61.046 0-84.33-1.437-1.437-2.932-2.79-4.479-4.052 7.412 3.334 14.363 8.046 20.454 14.137 26.922 26.92 26.922 70.574.001 97.495z" fill="#1785f8"/></g><g><path d="m408.871 156.118v-14.767h16.941c4.002 0 7.247-3.244 7.247-7.247v-16.351c0-4.002-3.244-7.247-7.247-7.247h-16.941v-14.767c0-4.002-3.244-7.247-7.247-7.247h-16.351c-4.002 0-7.247 3.244-7.247 7.247v14.767h-16.941c-4.002 0-7.247 3.244-7.247 7.247v16.351c0 4.002 3.244 7.247 7.247 7.247h16.941v14.767c0 4.002 3.244 7.247 7.247 7.247h16.351c4.002 0 7.247-3.245 7.247-7.247z" fill="#eef4f5"/></g></g></g></svg>