<svg id="fi_8654989" enable-background="new 0 0 512 512" height="512" viewBox="0 0 512 512" width="512" xmlns="http://www.w3.org/2000/svg"><g clip-rule="evenodd" fill-rule="evenodd"><path d="m24 141.395c0 4.418-3.582 8-8 8s-8-3.582-8-8v-125.395c0-4.418 3.582-8 8-8h125.395c4.418 0 8 3.582 8 8s-3.582 8-8 8h-117.395zm346.605-117.395c-4.418 0-8-3.582-8-8s3.582-8 8-8h125.395c4.418 0 8 3.582 8 8v125.395c0 4.418-3.582 8-8 8s-8-3.582-8-8v-117.395zm117.395 346.605c0-4.418 3.582-8 8-8s8 3.582 8 8v125.395c0 4.418-3.582 8-8 8h-125.395c-4.418 0-8-3.582-8-8s3.582-8 8-8h117.395zm-346.605 117.395c4.418 0 8 3.582 8 8s-3.582 8-8 8h-125.395c-4.418 0-8-3.582-8-8v-125.395c0-4.418 3.582-8 8-8s8 3.582 8 8v117.395z" fill="#9facba"></path><g><path d="m262.002 103.535 123.035 71.034c3.818 2.204 6.002 5.988 6.002 10.396v142.069c0 4.408-2.185 8.192-6.002 10.396l-123.035 71.035c-3.818 2.204-8.187 2.204-12.005 0l-123.035-71.035c-3.818-2.204-6.002-5.988-6.002-10.396v-142.069c0-4.408 2.185-8.192 6.002-10.396l123.035-71.034c3.818-2.204 8.188-2.204 12.005 0z" fill="#ffe177"></path><path d="m389.471 178.941c1.024 1.773 1.569 3.82 1.569 6.025v142.069c0 4.408-2.185 8.192-6.002 10.396l-123.036 71.035c-1.909 1.102-3.955 1.653-6.002 1.653v-154.119z" fill="#ffd064"></path><path d="m262.002 103.535 123.036 71.034c1.908 1.102 3.409 2.599 4.432 4.371l-133.47 77.06-133.47-77.06c1.023-1.772 2.524-3.269 4.432-4.371l123.036-71.034c3.817-2.204 8.187-2.204 12.004 0z" fill="#ffc338"></path></g></g></svg>